<?xml version="1.0" encoding="UTF-8" standalone="no"?>
<svg
   width="512"
   height="512"
   viewBox="0 0 512 512"
   version="1.1"
   id="svg31"
   sodipodi:docname="logo_foreground.svg"
   inkscape:version="1.4.4 (dcaf3e7d9e, 2026-05-05)"
   xmlns:inkscape="http://www.inkscape.org/namespaces/inkscape"
   xmlns:sodipodi="http://sodipodi.sourceforge.net/DTD/sodipodi-0.dtd"
   xmlns="http://www.w3.org/2000/svg"
   xmlns:svg="http://www.w3.org/2000/svg">
  <sodipodi:namedview
     id="namedview31"
     pagecolor="#505050"
     bordercolor="#eeeeee"
     borderopacity="1"
     inkscape:showpageshadow="0"
     inkscape:pageopacity="0"
     inkscape:pagecheckerboard="0"
     inkscape:deskcolor="#505050"
     inkscape:zoom="1.1421432"
     inkscape:cx="156.72291"
     inkscape:cy="292.87046"
     inkscape:window-width="1914"
     inkscape:window-height="1054"
     inkscape:window-x="0"
     inkscape:window-y="0"
     inkscape:window-maximized="1"
     inkscape:current-layer="svg31" />
  <defs
     id="defs3">
    <linearGradient
       id="g"
       x1="96"
       y1="64"
       x2="416"
       y2="448"
       gradientUnits="userSpaceOnUse">
      <stop
         offset="0"
         stop-color="#8CF85A"
         id="stop1"
         style="stop-color:#b3ff80;stop-opacity:1;" />
      <stop
         offset="0.65403718"
         stop-color="#55E96F"
         id="stop2" />
      <stop
         offset="100%"
         stop-color="#1FD8B6"
         id="stop3" />
    </linearGradient>
  </defs>
  <circle
     cx="255.5"
     cy="250.5"
     r="88"
     fill="none"
     stroke="url(#g)"
     stroke-width="46"
     stroke-linecap="round"
     id="circle3" />
  <g
     transform="translate(106.882 220.902) rotate(-168.158)"
     id="g4"
     style="fill:#b3ff80">
    <rect
       x="-13.828"
       y="-8.185"
       width="27.657"
       height="16.370"
       rx="8.185"
       ry="8.185"
       fill="url(#g)"
       id="rect4"
       style="fill:#b3ff80" />
  </g>
  <g
     transform="translate(118.420 189.614) rotate(-156.746)"
     id="g5"
     style="fill:#b3ff80">
    <rect
       x="-13.261"
       y="-8.143"
       width="26.522"
       height="16.287"
       rx="8.143"
       ry="8.143"
       fill="url(#g)"
       id="rect5"
       style="fill:#b3ff80" />
  </g>
  <g
     transform="translate(133.594 160.508) rotate(-143.570)"
     id="g6"
     style="fill:#b3ff80">
    <rect
       x="-14.406"
       y="-8.180"
       width="28.811"
       height="16.360"
       rx="8.180"
       ry="8.180"
       fill="url(#g)"
       id="rect6"
       style="fill:#b3ff80" />
  </g>
  <g
     transform="translate(153.597 132.186) rotate(47.104)"
     id="g7"
     style="fill:#b3ff80">
    <rect
       x="-19.183"
       y="-8.243"
       width="38.366"
       height="16.486"
       rx="8.243"
       ry="8.243"
       fill="url(#g)"
       id="rect7"
       style="fill:#b3ff80" />
  </g>
  <g
     transform="translate(186.096 118.168) rotate(62.019)"
     id="g8"
     style="fill:#b3ff80">
    <rect
       x="-12.998"
       y="-8.114"
       width="25.997"
       height="16.227"
       rx="8.114"
       ry="8.114"
       fill="url(#g)"
       id="rect8"
       style="fill:#b3ff80" />
  </g>
  <g
     transform="translate(218.429 104.717) rotate(75.609)"
     id="g9"
     style="fill:#b3ff80">
    <rect
       x="-14.071"
       y="-8.284"
       width="28.141"
       height="16.569"
       rx="8.284"
       ry="8.284"
       fill="url(#g)"
       id="rect9"
       style="fill:#b3ff80" />
  </g>
  <g
     transform="translate(255.497 84.529) rotate(90.022)"
     id="g10"
     style="fill:#b3ff80">
    <rect
       x="-30.501"
       y="-8.510"
       width="61.002"
       height="17.019"
       rx="8.510"
       ry="8.510"
       fill="url(#g)"
       id="rect10"
       style="fill:#b3ff80" />
  </g>
  <g
     transform="translate(292.604 104.746) rotate(104.507)"
     id="g11"
     style="fill:#b3ff80">
    <rect
       x="-14.072"
       y="-8.280"
       width="28.143"
       height="16.560"
       rx="8.280"
       ry="8.280"
       fill="url(#g)"
       id="rect11"
       style="fill:#b3ff80" />
  </g>
  <g
     transform="translate(324.783 118.169) rotate(117.814)"
     id="g12"
     style="fill:#b3ff80">
    <rect
       x="-12.971"
       y="-8.082"
       width="25.942"
       height="16.164"
       rx="8.082"
       ry="8.082"
       fill="url(#g)"
       id="rect12"
       style="fill:#b3ff80" />
  </g>
  <g
     transform="translate(357.478 131.759) rotate(131.940)"
     id="g13"
     style="fill:#b3ff80">
    <rect
       x="-19.588"
       y="-8.328"
       width="39.175"
       height="16.655"
       rx="8.328"
       ry="8.328"
       fill="url(#g)"
       id="rect13"
       style="fill:#b3ff80" />
  </g>
  <g
     transform="translate(377.292 160.524) rotate(144.083)"
     id="g14"
     style="fill:#b3ff80">
    <rect
       x="-14.411"
       y="-8.086"
       width="28.823"
       height="16.171"
       rx="8.086"
       ry="8.086"
       fill="url(#g)"
       id="rect14"
       style="fill:#b3ff80" />
  </g>
  <g
     transform="translate(392.580 189.614) rotate(156.746)"
     id="g15"
     style="fill:#b3ff80">
    <rect
       x="-13.261"
       y="-8.143"
       width="26.522"
       height="16.287"
       rx="8.143"
       ry="8.143"
       fill="url(#g)"
       id="rect15"
       style="fill:#b3ff80" />
  </g>
  <g
     transform="translate(403.843 220.908) rotate(168.834)"
     id="g16"
     style="fill:#b3ff80">
    <rect
       x="-14.025"
       y="-8.236"
       width="28.051"
       height="16.472"
       rx="8.236"
       ry="8.236"
       fill="url(#g)"
       id="rect16"
       style="fill:#b3ff80" />
  </g>
  <g
     transform="translate(422.005 252.494) rotate(-179.931)"
     id="g17"
     style="fill:#b3ff80">
    <rect
       x="-29.002"
       y="-8.528"
       width="58.005"
       height="17.055"
       rx="8.528"
       ry="8.528"
       fill="url(#g)"
       id="rect17"
       style="fill:#b3ff80" />
  </g>
  <g
     transform="translate(403.615 286.030) rotate(-167.160)"
     id="g18"
     style="fill:#b3ff80">
    <rect
       x="-13.829"
       y="-8.133"
       width="27.658"
       height="16.267"
       rx="8.133"
       ry="8.133"
       fill="url(#g)"
       id="rect18"
       style="fill:#b3ff80" />
  </g>
  <g
     transform="translate(391.884 316.839) rotate(-154.143)"
     id="g19"
     style="fill:#b3ff80">
    <rect
       x="-13.197"
       y="-8.085"
       width="26.395"
       height="16.170"
       rx="8.085"
       ry="8.085"
       fill="url(#g)"
       id="rect19"
       style="fill:#b3ff80" />
  </g>
  <g
     transform="translate(377.090 345.284) rotate(-144.555)"
     id="g20"
     style="fill:#b3ff80">
    <rect
       x="-14.125"
       y="-8.029"
       width="28.251"
       height="16.059"
       rx="8.029"
       ry="8.029"
       fill="url(#g)"
       id="rect20"
       style="fill:#b3ff80" />
  </g>
  <g
     transform="translate(355.485 370.005) rotate(47.605)"
     id="g21"
     style="fill:#b3ff80">
    <rect
       x="-18.157"
       y="-8.236"
       width="36.314"
       height="16.472"
       rx="8.236"
       ry="8.236"
       fill="url(#g)"
       id="rect21"
       style="fill:#b3ff80" />
  </g>
  <g
     transform="translate(324.527 385.111) rotate(63.676)"
     id="g22"
     style="fill:#b3ff80">
    <rect
       x="-12.973"
       y="-8.062"
       width="25.946"
       height="16.124"
       rx="8.062"
       ry="8.062"
       fill="url(#g)"
       id="rect22"
       style="fill:#b3ff80" />
  </g>
  <g
     transform="translate(292.798 397.440) rotate(74.039)"
     id="g23"
     style="fill:#b3ff80">
    <rect
       x="-13.256"
       y="-8.037"
       width="26.511"
       height="16.074"
       rx="8.037"
       ry="8.037"
       fill="url(#g)"
       id="rect23"
       style="fill:#b3ff80" />
  </g>
  <g
     transform="translate(255.500 416.500) rotate(90.000)"
     id="g24"
     style="fill:#b3ff80">
    <rect
       x="-30.500"
       y="-8.500"
       width="61.000"
       height="17.000"
       rx="8.500"
       ry="8.500"
       fill="url(#g)"
       id="rect24"
       style="fill:#b3ff80" />
  </g>
  <g
     transform="translate(218.202 397.474) rotate(105.663)"
     id="g25"
     style="fill:#b3ff80">
    <rect
       x="-13.251"
       y="-8.108"
       width="26.501"
       height="16.216"
       rx="8.108"
       ry="8.108"
       fill="url(#g)"
       id="rect25"
       style="fill:#b3ff80" />
  </g>
  <g
     transform="translate(186.611 385.104) rotate(116.353)"
     id="g26"
     style="fill:#b3ff80">
    <rect
       x="-12.750"
       y="-7.847"
       width="25.501"
       height="15.694"
       rx="7.847"
       ry="7.847"
       fill="url(#g)"
       id="rect26"
       style="fill:#b3ff80" />
  </g>
  <g
     transform="translate(155.578 370.060) rotate(132.838)"
     id="g27"
     style="fill:#b3ff80">
    <rect
       x="-18.112"
       y="-8.166"
       width="36.224"
       height="16.332"
       rx="8.166"
       ry="8.166"
       fill="url(#g)"
       id="rect27"
       style="fill:#b3ff80" />
  </g>
  <g
     transform="translate(134.140 345.219) rotate(145.531)"
     id="g28"
     style="fill:#b3ff80">
    <rect
       x="-14.009"
       y="-8.059"
       width="28.017"
       height="16.119"
       rx="8.059"
       ry="8.059"
       fill="url(#g)"
       id="rect28"
       style="fill:#b3ff80" />
  </g>
  <g
     transform="translate(118.963 316.885) rotate(153.723)"
     id="g29"
     style="fill:#b3ff80">
    <rect
       x="-13.416"
       y="-8.064"
       width="26.832"
       height="16.129"
       rx="8.064"
       ry="8.064"
       fill="url(#g)"
       id="rect29"
       style="fill:#b3ff80" />
  </g>
  <g
     transform="translate(107.268 286.040) rotate(166.932)"
     id="g30"
     style="fill:#b3ff80">
    <rect
       x="-13.942"
       y="-8.097"
       width="27.884"
       height="16.194"
       rx="8.097"
       ry="8.097"
       fill="url(#g)"
       id="rect30"
       style="fill:#b3ff80" />
  </g>
  <g
     transform="translate(88.830 252.487) rotate(-179.981)"
     id="g31"
     style="fill:#b3ff80">
    <rect
       x="-29.000"
       y="-8.508"
       width="58.001"
       height="17.015"
       rx="8.508"
       ry="8.508"
       fill="url(#g)"
       id="rect31"
       style="fill:#b3ff80" />
  </g>
</svg>
